<svg width="24" height="25" viewBox="0 0 24 25" fill="none" xmlns="http://www.w3.org/2000/svg">
<rect y="0.712402" width="24" height="24" rx="5.75" fill="#F0C593"/>
<rect y="0.712402" width="24" height="24" rx="5.75" fill="url(#paint0_linear_37_57)"/>
<path d="M18.8156 16.6029C18.8156 16.8242 18.7652 17.0516 18.6579 17.2728C18.5506 17.4941 18.4118 17.7031 18.2289 17.8998C17.9197 18.2317 17.579 18.4714 17.1941 18.625C16.8155 18.7787 16.4054 18.8586 15.9638 18.8586C15.3202 18.8586 14.6325 18.7111 13.9069 18.4099C13.1813 18.1087 12.4557 17.7031 11.7364 17.1929C11.0108 16.6767 10.3231 16.105 9.66691 15.472C9.01704 14.8327 8.43026 14.1628 7.90657 13.4621C7.3892 12.7614 6.97277 12.0607 6.66992 11.3662C6.36706 10.6655 6.21564 9.99558 6.21564 9.35636C6.21564 8.93841 6.29135 8.53889 6.44278 8.17011C6.5942 7.79519 6.83396 7.45099 7.16837 7.14367C7.57217 6.75645 8.01383 6.56592 8.48073 6.56592C8.6574 6.56592 8.83406 6.6028 8.9918 6.67655C9.15585 6.75031 9.30097 6.86094 9.41454 7.02075L10.8783 9.0306C10.9919 9.18426 11.0739 9.32563 11.1307 9.46084C11.1875 9.58992 11.219 9.71899 11.219 9.83577C11.219 9.98328 11.1749 10.1308 11.0865 10.2722C11.0045 10.4135 10.8846 10.561 10.7332 10.7086L10.2537 11.1941C10.1843 11.2617 10.1527 11.3416 10.1527 11.44C10.1527 11.4891 10.1591 11.5322 10.1717 11.5813C10.1906 11.6305 10.2095 11.6674 10.2221 11.7043C10.3357 11.9071 10.5313 12.1714 10.8089 12.491C11.0929 12.8106 11.3957 13.1364 11.7238 13.4621C12.0645 13.7879 12.3926 14.089 12.727 14.3656C13.0551 14.6361 13.3264 14.8205 13.5409 14.9311C13.5725 14.9434 13.6103 14.9618 13.6545 14.9803C13.705 14.9987 13.7554 15.0048 13.8122 15.0048C13.9195 15.0048 14.0015 14.968 14.0709 14.9004L14.5504 14.4394C14.7082 14.2857 14.8596 14.1689 15.0047 14.0952C15.1498 14.0091 15.295 13.9661 15.4527 13.9661C15.5726 13.9661 15.6988 13.9907 15.8376 14.046C15.9764 14.1013 16.1215 14.1812 16.2792 14.2857L18.3677 15.7301C18.5317 15.8407 18.6453 15.9698 18.7147 16.1235C18.7778 16.2771 18.8156 16.4308 18.8156 16.6029Z" fill="white"/>
<defs>
<linearGradient id="paint0_linear_37_57" x1="20.7813" y1="0.712404" x2="1.19698" y2="1.81308" gradientUnits="userSpaceOnUse">
<stop stop-color="#95E0FF"/>
<stop offset="0.53" stop-color="#0C8FC6"/>
<stop offset="1" stop-color="#31AADD"/>
</linearGradient>
</defs>
</svg>
