<svg width="25" height="25" viewBox="0 0 25 25" fill="none" xmlns="http://www.w3.org/2000/svg">
<path opacity="0.3" d="M19.5154 5.48455C23.39 9.35908 23.39 15.6409 19.5154 19.5154C15.6409 23.39 9.35908 23.39 5.48455 19.5154C1.61002 15.6409 1.61002 9.35908 5.48455 5.48455C9.35908 1.61002 15.6409 1.61002 19.5154 5.48455ZM8.52973 16.4703C10.7225 18.663 14.2775 18.663 16.4703 16.4703C18.663 14.2775 18.663 10.7225 16.4703 8.52973C14.2775 6.33701 10.7225 6.33701 8.52973 8.52973C6.33701 10.7225 6.33701 14.2775 8.52973 16.4703Z" stroke="#0C8FC6" stroke-width="5.15731"/>
<mask id="path-2-inside-1_12_37" fill="white">
<path d="M18.3107 6.477C21.5791 9.74541 21.5791 15.0445 18.3107 18.313C15.0423 21.5814 9.74315 21.5814 6.47474 18.313C3.20634 15.0445 3.20634 9.74541 6.47474 6.477C9.74315 3.20859 15.0423 3.20859 18.3107 6.477ZM9.32904 15.4587C11.0211 17.1507 13.7644 17.1507 15.4564 15.4587C17.1484 13.7666 17.1484 11.0233 15.4564 9.3313C13.7644 7.63927 11.0211 7.63927 9.32904 9.3313C7.63701 11.0233 7.63701 13.7666 9.32904 15.4587Z"/>
</mask>
<path d="M14.6639 10.1238C15.9183 11.3781 15.9183 13.4118 14.6639 14.6662L21.9575 21.9597C27.2399 16.6773 27.2399 8.1127 21.9575 2.83023L14.6639 10.1238ZM14.6639 14.6662C13.4096 15.9205 11.3759 15.9205 10.1215 14.6662L2.82797 21.9597C8.11044 27.2422 16.675 27.2422 21.9575 21.9597L14.6639 14.6662ZM10.1215 14.6662C8.86716 13.4118 8.86716 11.3781 10.1215 10.1238L2.82797 2.83023C-2.45449 8.1127 -2.45449 16.6773 2.82797 21.9597L10.1215 14.6662ZM10.1215 10.1238C11.3759 8.86942 13.4096 8.86942 14.6639 10.1238L21.9575 2.83023C16.675 -2.45223 8.11044 -2.45223 2.82797 2.83023L10.1215 10.1238ZM5.68227 19.1054C9.38835 22.8115 15.3971 22.8115 19.1032 19.1054L11.8096 11.8119C12.1317 11.4899 12.6538 11.4899 12.9758 11.8119L5.68227 19.1054ZM19.1032 19.1054C22.8092 15.3993 22.8092 9.39061 19.1032 5.68453L11.8096 12.9781C11.4876 12.656 11.4876 12.1339 11.8096 11.8119L19.1032 19.1054ZM19.1032 5.68453C15.3971 1.97845 9.38835 1.97845 5.68227 5.68453L12.9758 12.9781C12.6538 13.3001 12.1317 13.3001 11.8096 12.9781L19.1032 5.68453ZM5.68227 5.68453C1.97619 9.39061 1.97619 15.3993 5.68227 19.1054L12.9758 11.8119C13.2978 12.1339 13.2978 12.656 12.9758 12.9781L5.68227 5.68453Z" fill="#0C8FC6" mask="url(#path-2-inside-1_12_37)"/>
</svg>
