<svg width="45" height="45" viewBox="0 0 45 45" fill="none" xmlns="http://www.w3.org/2000/svg">
<rect width="45" height="45" rx="22.5" transform="matrix(-1 0 0 1 45 0)" fill="url(#paint0_linear_12_543)"/>
<path fill-rule="evenodd" clip-rule="evenodd" d="M32.4437 12.5563C26.9519 7.06456 18.0481 7.06456 12.5563 12.5563C7.06456 18.0481 7.06456 26.9519 12.5563 32.4437C18.0481 37.9354 26.9519 37.9354 32.4437 32.4437C37.9354 26.9519 37.9354 18.0481 32.4437 12.5563ZM25.4831 29.8725L16.5338 29.8725C15.7571 29.8725 15.1275 29.2429 15.1275 28.4662L15.1275 19.5169C15.1275 18.7402 15.7571 18.1106 16.5338 18.1106C17.3104 18.1106 17.94 18.7402 17.94 19.5169V25.0712L27.4718 15.5394C28.021 14.9902 28.9114 14.9902 29.4606 15.5394C30.0098 16.0886 30.0098 16.979 29.4606 17.5282L19.9288 27.06H25.4831C26.2598 27.06 26.8894 27.6896 26.8894 28.4662C26.8894 29.2429 26.2598 29.8725 25.4831 29.8725Z" fill="#FDFFFD"/>
<defs>
<linearGradient id="paint0_linear_12_543" x1="38.965" y1="2.91943e-06" x2="2.24434" y2="2.06377" gradientUnits="userSpaceOnUse">
<stop stop-color="#95E0FF"/>
<stop offset="0.53" stop-color="#0C8FC6"/>
<stop offset="1" stop-color="#31AADD"/>
</linearGradient>
</defs>
</svg>
